<svg width="51" height="51" viewBox="0 0 51 51" fill="none" xmlns="http://www.w3.org/2000/svg">
<path d="M49.9609 46.3896L39.4677 36.0603C42.4391 32.2198 44.0289 27.4897 43.9804 22.6341C43.9464 18.3105 42.631 14.094 40.2006 10.5179C37.7701 6.94177 34.3339 4.16668 30.3263 2.54352C26.3187 0.920366 21.9198 0.52205 17.6858 1.39894C13.4519 2.27583 9.57303 4.38855 6.53979 7.46993C3.50656 10.5513 1.45516 14.4629 0.645039 18.7102C-0.165087 22.9574 0.302435 27.3495 1.98848 31.331C3.67453 35.3126 6.50337 38.7047 10.1173 41.0785C13.7312 43.4523 17.9679 44.7012 22.2916 44.6672C27.1473 44.6392 31.8518 42.9751 35.645 39.9436L46.1383 50.2729C46.6645 50.7165 47.3388 50.9451 48.0263 50.9131C48.7139 50.8812 49.364 50.5909 49.8468 50.1004C50.3297 49.6099 50.6096 48.9553 50.6308 48.2674C50.6519 47.5794 50.4127 46.9088 49.9609 46.3896V46.3896ZM22.2486 39.2019C19.0058 39.2275 15.8283 38.2908 13.1178 36.5105C10.4074 34.7301 8.28578 32.186 7.02124 29.1998C5.75671 26.2137 5.40606 22.9196 6.01365 19.7342C6.62124 16.5487 8.15979 13.615 10.4347 11.304C12.7096 8.99297 15.6188 7.40843 18.7943 6.75076C21.9697 6.0931 25.2689 6.39183 28.2746 7.6092C31.2803 8.82657 33.8575 10.9079 35.6803 13.59C37.5031 16.272 38.4896 19.4344 38.5152 22.6772C38.5494 27.0256 36.8548 31.2095 33.8042 34.3085C30.7537 37.4075 26.597 39.1677 22.2486 39.2019Z" fill="#808080"/>
</svg>
